<svg width="90" height="115" viewBox="0 0 90 115" fill="none" xmlns="http://www.w3.org/2000/svg">
<path d="M45 12C63.2392 12 78 26.6208 78 44.626C77.9999 54.995 72.777 66.6343 66.2061 77.1055C59.6741 87.5144 51.9967 96.479 47.4619 101.438C46.1037 102.921 43.8953 102.921 42.5371 101.438C38.0022 96.4789 30.3257 87.5141 23.7939 77.1055C17.223 66.6343 12.0001 54.995 12 44.626C12 26.6208 26.7608 12 45 12Z" fill="#F5007A" stroke="white" stroke-width="4"/>
<path d="M62.5814 38.0415C62.165 37.0587 61.4735 36.3502 60.5808 35.9933L60.5688 35.9888C60.1625 35.8308 59.73 35.7499 59.2936 35.7504H59.2456C57.2024 35.7809 55.1163 37.5058 54.0557 40.0428C53.2778 41.8981 53.1886 43.8934 53.8171 45.3806C54.2327 46.3641 54.9258 47.0727 55.8222 47.4296L55.8319 47.4333C56.2382 47.5913 56.6708 47.6722 57.1071 47.6717C59.1699 47.6717 61.2777 45.9469 62.3578 43.3763C63.1259 41.5233 63.2107 39.5294 62.5814 38.0415ZM54.4172 48.9838C53.2388 48.2805 52.1249 47.6151 51.3973 46.42C49.39 43.1118 48.1779 41.115 44.9997 41.115C41.8215 41.115 40.6063 43.1118 38.5945 46.42C37.8654 47.6166 36.7493 48.2827 35.5671 48.989C34.2117 49.7982 32.8112 50.6342 32.2067 52.2793C31.9716 52.8724 31.8532 53.5047 31.8579 54.142C31.8579 56.8206 33.9581 59 36.5385 59C37.8699 59 39.2869 58.5418 40.7863 58.0567C42.228 57.5903 43.7185 57.1082 45.0072 57.1082C46.2959 57.1082 47.7826 57.5903 49.219 58.0567C50.7155 58.5388 52.1257 58.997 53.4608 58.997C56.0374 58.997 58.134 56.8176 58.134 54.1391C58.1361 53.5013 58.0152 52.8689 57.7777 52.2764C57.1731 50.6297 55.7719 49.793 54.4172 48.9838ZM37.0486 38.496C37.9412 39.6084 39.0739 40.2209 40.238 40.2209C40.3969 40.2208 40.5556 40.2091 40.7128 40.1859C43.1409 39.8312 44.6539 36.8881 44.1573 33.4801C43.9495 32.0473 43.3945 30.7129 42.5993 29.7234C41.7082 28.6132 40.5741 28.0015 39.4107 28.0015C39.2517 28.0015 39.093 28.0132 38.9358 28.0365C36.5078 28.3912 34.9948 31.3343 35.4914 34.7423C35.6984 36.1728 36.2535 37.5058 37.0486 38.496ZM49.2873 40.1859C49.4445 40.2091 49.6032 40.2208 49.7621 40.2209C50.927 40.2209 52.0589 39.6084 52.9515 38.496C53.7459 37.5058 54.298 36.1728 54.508 34.7408C55.0046 31.3343 53.4916 28.3912 51.0635 28.035C50.9063 28.0117 50.7476 28 50.5887 28C49.4253 28.0015 48.2911 28.6132 47.4 29.7234C46.6049 30.7129 46.0498 32.0473 45.8428 33.4816C45.3462 36.8881 46.8592 39.8312 49.2873 40.1859ZM34.1674 47.4333L34.1779 47.4296C35.0728 47.0727 35.7651 46.3649 36.18 45.3821C36.8085 43.8919 36.72 41.8988 35.9437 40.0436C34.8688 37.476 32.7617 35.7504 30.7012 35.7504C30.2649 35.7497 29.8323 35.8306 29.426 35.9888L29.4155 35.9925C28.5229 36.3464 27.8306 37.0573 27.4157 38.04C26.7872 39.5302 26.8757 41.5233 27.652 43.3786C28.7269 45.9461 30.834 47.6717 32.8945 47.6717C33.3301 47.6721 33.7619 47.5912 34.1674 47.4333Z" fill="white"/>
</svg>
