<svg width="90" height="115" viewBox="0 0 90 115" fill="none" xmlns="http://www.w3.org/2000/svg">
<path d="M45 12C63.2392 12 78 26.6208 78 44.626C77.9999 54.995 72.777 66.6343 66.2061 77.1055C59.6741 87.5144 51.9967 96.479 47.4619 101.438C46.1037 102.921 43.8953 102.921 42.5371 101.438C38.0022 96.4789 30.3257 87.5141 23.7939 77.1055C17.223 66.6343 12.0001 54.995 12 44.626C12 26.6208 26.7608 12 45 12Z" fill="#FFBB00" stroke="white" stroke-width="4"/>
<path d="M44.424 46.9916L32.4466 45.6105C31.7375 45.536 31.2828 45.1634 31.0827 44.4929C30.8826 43.8223 31.0457 43.2555 31.5722 42.7924L51.2821 25.2694C51.3721 25.179 51.4762 25.1118 51.5944 25.0679C51.7126 25.0226 51.8831 25 52.1061 25C52.4687 25 52.7548 25.155 52.9644 25.465C53.1739 25.775 53.1759 26.101 52.9704 26.443L45.4697 39.0463L57.5236 40.4274C58.2328 40.5019 58.6942 40.8678 58.9077 41.5251C59.1213 42.1824 58.9641 42.7432 58.4363 43.2076L38.7265 60.7705C38.6365 60.8596 38.5324 60.9202 38.4142 60.9521C38.296 60.984 38.1254 61 37.9024 61C37.5398 61 37.2665 60.8457 37.0825 60.537C36.8985 60.2283 36.8964 59.915 37.0764 59.597L44.424 46.9916Z" fill="white"/>
</svg>
