<svg width="90" height="115" viewBox="0 0 90 115" fill="none" xmlns="http://www.w3.org/2000/svg">
<path d="M45 12C63.2392 12 78 26.6208 78 44.626C77.9999 54.995 72.777 66.6343 66.2061 77.1055C59.6741 87.5144 51.9967 96.479 47.4619 101.438C46.1037 102.921 43.8953 102.921 42.5371 101.438C38.0022 96.4789 30.3257 87.5141 23.7939 77.1055C17.223 66.6343 12.0001 54.995 12 44.626C12 26.6208 26.7608 12 45 12Z" fill="#00BB22" stroke="white" stroke-width="4"/>
<path d="M43.116 25.8594C43.116 25.3088 42.6119 24.8975 42.0879 25.0568C38.0481 26.3038 35.1161 30.0849 35.1161 34.5492C35.1161 36.2142 35.5207 37.7797 36.2438 39.1595C34.8508 39.2789 33.4577 39.7034 32.1642 40.453C28.3234 42.6819 26.539 47.0997 27.4611 51.2324C27.5871 51.7896 28.2173 52.0284 28.7148 51.7365C29.0465 51.5442 29.2189 51.166 29.1858 50.7813C29.1659 50.5624 29.1592 50.3435 29.1592 50.1113C29.1592 41.919 41.3913 41.919 41.3913 50.1113C41.3913 55.9753 35.1227 57.6469 31.5606 55.113C31.2621 54.9007 30.864 54.8543 30.5456 55.04C30.0813 55.312 29.9752 55.9421 30.3665 56.307C33.4577 59.2124 38.194 59.8824 42.0481 57.6469C43.2354 56.9571 44.2238 56.0615 44.9999 55.0334C45.7761 56.0682 46.7644 56.9637 47.9518 57.6469C51.8059 59.8824 56.5422 59.2124 59.6334 56.307C60.0247 55.9421 59.9186 55.3053 59.4543 55.04C59.1358 54.8543 58.7378 54.9007 58.4393 55.113C54.8772 57.6469 48.6085 55.9753 48.6085 50.1113C48.6085 41.919 60.8406 41.919 60.8406 50.1113C60.8406 50.3369 60.834 50.5624 60.8141 50.7813C60.7809 51.166 60.9534 51.5442 61.2851 51.7365C61.776 52.0218 62.4128 51.7896 62.5388 51.2324C63.4609 47.1064 61.6765 42.6819 57.8357 40.453C56.5422 39.7034 55.1558 39.2789 53.7561 39.1595C54.4792 37.7797 54.8838 36.2142 54.8838 34.5492C54.8838 30.0849 51.9518 26.3038 47.912 25.0568C47.388 24.8975 46.8838 25.3088 46.8838 25.8594C46.8838 26.2508 47.1492 26.5891 47.514 26.735C53.0463 28.9639 52.2105 38.5691 45.0066 38.5691C37.8026 38.5691 36.9536 28.9639 42.4859 26.735C42.8507 26.5891 43.116 26.2508 43.116 25.8594ZM42.3466 44.1279C42.3466 43.7795 42.4152 43.4345 42.5485 43.1125C42.6819 42.7906 42.8773 42.4981 43.1237 42.2517C43.3701 42.0053 43.6626 41.8099 43.9845 41.6765C44.3065 41.5432 44.6515 41.4746 44.9999 41.4746C45.3484 41.4746 45.6934 41.5432 46.0154 41.6765C46.3373 41.8099 46.6298 42.0053 46.8762 42.2517C47.1226 42.4981 47.318 42.7906 47.4514 43.1125C47.5847 43.4345 47.6533 43.7795 47.6533 44.1279C47.6533 44.4764 47.5847 44.8214 47.4514 45.1434C47.318 45.4653 47.1226 45.7578 46.8762 46.0042C46.6298 46.2506 46.3373 46.446 46.0154 46.5794C45.6934 46.7127 45.3484 46.7813 44.9999 46.7813C44.6515 46.7813 44.3065 46.7127 43.9845 46.5794C43.6626 46.446 43.3701 46.2506 43.1237 46.0042C42.8773 45.7578 42.6819 45.4653 42.5485 45.1434C42.4152 44.8214 42.3466 44.4764 42.3466 44.1279ZM54.7246 46.0981C53.65 46.0981 52.6417 46.4629 51.9319 47.0931C51.2619 47.6967 50.7313 48.6453 50.7313 50.118C50.7313 51.5176 51.2089 52.4397 51.8258 53.0433C53.9618 51.4115 55.5073 49.0301 56.0646 46.2905C55.6467 46.1644 55.1889 46.0915 54.7246 46.0915V46.0981ZM39.2686 50.118C39.2686 48.6387 38.738 47.6901 38.068 47.0931C37.3582 46.4563 36.3499 46.0981 35.2753 46.0981C34.811 46.0981 34.3532 46.1644 33.9353 46.2971C34.4925 49.0367 36.0315 51.4181 38.1741 53.0499C38.7977 52.4463 39.2686 51.5176 39.2686 50.118ZM42.0016 35.2391C42.5986 35.9157 43.5406 36.4464 44.9999 36.4464C46.4593 36.4464 47.4013 35.9157 47.9983 35.2391C48.4427 34.735 48.7611 34.0783 48.9004 33.3552C47.6865 32.9041 46.3664 32.6587 44.9999 32.6587C43.6335 32.6587 42.3134 32.9041 41.0995 33.3552C41.2454 34.0783 41.5572 34.735 42.0016 35.2457V35.2391Z" fill="white"/>
</svg>
