<svg width="90" height="115" viewBox="0 0 90 115" fill="none" xmlns="http://www.w3.org/2000/svg">
<path d="M45 12C63.2392 12 78 26.6208 78 44.626C77.9999 54.995 72.777 66.6343 66.2061 77.1055C59.6741 87.5144 51.9967 96.479 47.4619 101.438C46.1037 102.921 43.8953 102.921 42.5371 101.438C38.0022 96.4789 30.3257 87.5141 23.7939 77.1055C17.223 66.6343 12.0001 54.995 12 44.626C12 26.6208 26.7608 12 45 12Z" fill="#666348" stroke="white" stroke-width="4"/>
<path d="M42.844 28C43.42 28 43.906 28.09 44.302 28.252C46.552 29.242 47.344 32.284 47.362 35.398C48.424 33.922 51.232 31.276 53.5 31.276C55.768 31.276 58.792 32.59 59.854 37.666C57.82 36.496 55.498 35.974 53.284 35.974C51.016 35.974 48.874 36.55 47.362 37.576C48.082 37.378 48.91 37.288 49.756 37.288C52.258 37.288 54.976 38.098 55.876 39.646C57.1 41.734 56.722 45.73 54.508 47.098C54.256 43.318 51.466 39.682 48.262 39.682C47.47 39.682 46.678 39.898 45.868 40.366C41.8 42.814 40 49.906 40 57.898H31C31 47.944 38.578 40.528 44.824 38.476C43.816 38.314 42.718 38.206 41.548 38.206C38.38 38.206 34.69 38.998 31 41.698C32.368 36.37 36.004 34.318 39.442 34.318C41.692 34.318 43.852 35.218 45.202 36.64C44.014 32.608 40.72 31.492 37.858 31.492C36.418 31.492 35.068 31.78 34.168 32.122C35.806 29.8 40.126 28 42.844 28ZM50.8 44.398C50.8 42.904 49.594 41.698 48.1 41.698C46.606 41.698 45.4 42.904 45.4 44.398C45.4 45.892 46.606 47.098 48.1 47.098C49.594 47.098 50.8 45.892 50.8 44.398Z" fill="white"/>
</svg>
