<svg width="90" height="115" viewBox="0 0 90 115" fill="none" xmlns="http://www.w3.org/2000/svg">
<path d="M45 12C63.2392 12 78 26.6208 78 44.626C77.9999 54.995 72.777 66.6343 66.2061 77.1055C59.6741 87.5144 51.9967 96.479 47.4619 101.438C46.1037 102.921 43.8953 102.921 42.5371 101.438C38.0022 96.4789 30.3257 87.5141 23.7939 77.1055C17.223 66.6343 12.0001 54.995 12 44.626C12 26.6208 26.7608 12 45 12Z" fill="#674918" stroke="white" stroke-width="4"/>
<path d="M45 28L27 43.8824H32.4V58H57.6V43.8824H63L45 28ZM46.8 54.4706H43.2V50.9412H46.8V54.4706ZM46.8 47.4118H43.2V36.8235H46.8V47.4118Z" fill="white"/>
</svg>
